<svg version="1.0" xmlns="http://www.w3.org/2000/svg" width="80px" height="80px" viewBox="0 0 161.000000 164.000000"><g transform="translate(0.000000,164.000000) scale(0.100000,-0.100000)" fill="currentColor" stroke="none"><path d="M822 1005 c-161 -228 -292 -417 -292 -420 0 -9 63 5 74 16 16 15 126 11 126 -4 0 -7 -14 -91 -30 -186 -17 -95 -29 -178 -28 -183 2 -4 40 94 84 219 44 126 80 229 80 229 -1 1 -45 -6 -98 -16 -109 -19 -114 -17 -75 41 l23 34 134 17 c74 10 136 15 139 13 2 -3 -59 -140 -135 -306 -76 -166 -141 -307 -142 -313 -2 -6 33 44 77 112 45 68 81 127 81 131 0 5 41 94 90 199 50 105 90 194 90 197 0 3 -30 6 -67 6 -73 1 -211 15 -177 17 16 2 45 47 134 215 62 116 135 254 162 305 28 50 48 92 45 92 -2 0 -135 -187 -295 -415z"/><path d="M1005 860 c-77 -22 -147 -41 -155 -43 -8 -2 48 -1 124 1 117 4 138 3 130 -9 -4 -8 -33 -54 -64 -104 -70 -113 -76 -123 -63 -110 10 10 127 183 177 263 33 52 36 52 -149 2z"/></g></svg>